# xmcd
#
# Track frame offsets:
#  182
#  22405
#  45032
#  58790
#  81185
#  101680
#  123887
#  144182
#  159240
#  177372
#
# Disc length: 2660 seconds
#
# Revision: 0
# Processed by: cddbd v1.5.2PL0 Copyright (c) Steve Scherf et al.
# Submitted via: Collectorz.com_Music_Collector 6.11
#
DISCID=780a620a
DTITLE=James Last - Superlast
DYEAR=1983
DGENRE=Big Band - Orchestral
TTITLE0=The Heat Is On/Codo/Maniac
TTITLE1=Righera/Juliet/Der Knutschfleck
TTITLE2=It's Raining Again/Do You Really Want To Hurt Me 
TTITLE3=Africa/Love Is A Stranger/Flashdance..What A feeling
TTITLE4=Moonlight Shadow/Hey Little Girl ?Comment Sa Va
TTITLE5=Ricchi E Poveri - Mamma Maria/She Works Hard For The Money/Living On Video
TTITLE6=Ich Sterbe Nicht Nochmal/Leuchtturm/I.O.U.
TTITLE7=Al Bano and Romina Power - Tu Soltanto Tu/Kleine Taschentamps Brenn
TTITLE8=Bruttosozialprodukt/Major Toni/I'm Still Standing
TTITLE9=Toto Cutugno - Ryan Paris - L'Italiano/Dolce Vita/I Don't Wanna Dance
EXTD=
EXTT0=
EXTT1=
EXTT2=
EXTT3=
EXTT4=
EXTT5=
EXTT6=
EXTT7=
EXTT8=
EXTT9=
PLAYORDER=
